<?xml version="1.0" encoding="utf-8"?>
<!-- Generator: Adobe Illustrator 16.0.0, SVG Export Plug-In . SVG Version: 6.00 Build 0)  -->
<!DOCTYPE svg PUBLIC "-//W3C//DTD SVG 1.1//EN" "http://www.w3.org/Graphics/SVG/1.1/DTD/svg11.dtd">
<svg version="1.1" id="Layer_1" xmlns="http://www.w3.org/2000/svg" xmlns:xlink="http://www.w3.org/1999/xlink" x="0px" y="0px"
	 width="306px" height="95px" viewBox="0 0 306 95" enable-background="new 0 0 306 95" xml:space="preserve">
<g>
	<g>
		<path fill="#FFFFFF" d="M216.615,36.48l6.8,0.01l-0.037,23.852l14.742,0.022l-0.009,5.541l-21.541-0.033L216.615,36.48
			L216.615,36.48z"/>
		<path fill="#FFFFFF" d="M239.292,36.515c0.003-2.056,1.646-3.647,4.08-3.644c2.434,0.004,4.069,1.519,4.066,3.532
			c-0.003,2.185-1.645,3.777-4.078,3.773C240.926,40.173,239.289,38.575,239.292,36.515z M240.083,43.32l6.546,0.01l-0.035,22.588
			l-6.545-0.01L240.083,43.32z"/>
		<path fill="#FFFFFF" d="M271.709,53.024l-0.021,12.934l-6.55-0.011l0.019-11.924c0.006-3.653-1.667-5.331-4.566-5.336
			c-3.149-0.005-5.422,1.921-5.429,6.077l-0.018,11.169l-6.545-0.011l0.035-22.589l6.255,0.01l-0.004,2.646
			c1.767-1.928,4.413-2.978,7.478-2.974C267.696,43.024,271.72,46.141,271.709,53.024z"/>
		<path fill="#FFFFFF" d="M283.367,57.116l-3.156,3.104l-0.009,5.75l-6.549-0.01l0.049-31.153l6.549,0.01l-0.027,17.635l9.586-9.055
			l7.811,0.012l-9.418,9.559l10.223,13.031l-7.935-0.012L283.367,57.116z"/>
		<path fill="#FFFFFF" d="M113.429,65.965c-2.292-0.004-4.339-0.388-6.142-1.163c-1.806-0.769-3.345-1.827-4.629-3.175
			c-1.282-1.352-2.254-2.927-2.929-4.73c-0.677-1.799-1.01-3.728-1.007-5.787l0-0.082c0.003-1.979,0.358-3.872,1.062-5.667
			c0.708-1.796,1.7-3.384,2.969-4.758c1.274-1.373,2.795-2.463,4.576-3.27c1.778-0.803,3.765-1.204,5.937-1.201
			c1.219,0.002,2.323,0.08,3.33,0.249c1.014,0.169,1.95,0.416,2.815,0.744c0.869,0.333,1.682,0.743,2.443,1.226
			c0.751,0.479,1.492,1.027,2.206,1.627l-2.114,2.471c-0.55-0.496-1.126-0.944-1.738-1.342c-0.606-0.4-1.261-0.745-1.958-1.032
			c-0.705-0.29-1.476-0.516-2.318-0.685c-0.846-0.166-1.774-0.253-2.793-0.254c-1.596-0.002-3.072,0.313-4.428,0.944
			c-1.354,0.63-2.514,1.481-3.477,2.55c-0.969,1.073-1.729,2.327-2.284,3.77c-0.553,1.44-0.832,2.96-0.834,4.553v0.083
			c-0.003,1.729,0.265,3.322,0.794,4.783c0.54,1.456,1.299,2.722,2.296,3.791c0.987,1.077,2.188,1.915,3.596,2.521
			c1.404,0.606,2.988,0.909,4.757,0.912c1.654,0.003,3.212-0.273,4.676-0.834c1.456-0.562,2.683-1.241,3.683-2.036l0.011-7.172
			l-8.812-0.013l0.004-2.928l11.954,0.018l-0.018,11.498c-1.35,1.209-3.017,2.243-4.987,3.105
			C118.098,65.547,115.88,65.969,113.429,65.965z"/>
		<path fill="#FFFFFF" d="M129.249,44.19l3.187,0.005l-0.008,5.565c0.387-0.879,0.874-1.691,1.458-2.433
			c0.574-0.74,1.236-1.377,1.986-1.912c0.747-0.532,1.56-0.939,2.443-1.211c0.881-0.274,1.835-0.397,2.855-0.365l-0.005,3.42
			l-0.249,0c-1.164-0.002-2.254,0.202-3.29,0.614c-1.038,0.409-1.938,1.023-2.713,1.849c-0.774,0.824-1.383,1.846-1.823,3.067
			c-0.444,1.22-0.669,2.63-0.672,4.225l-0.013,8.485l-3.187-0.005L129.249,44.19L129.249,44.19z"/>
		<path fill="#FFFFFF" d="M152.348,65.99c-1.3-0.002-2.45-0.213-3.454-0.627c-1.008-0.413-1.862-0.996-2.563-1.753
			c-0.704-0.757-1.244-1.659-1.611-2.705c-0.372-1.041-0.558-2.196-0.556-3.46l0.02-13.232l3.189,0.005l-0.019,12.419
			c-0.003,1.975,0.506,3.538,1.519,4.691c1.02,1.157,2.483,1.73,4.384,1.733c0.912,0.001,1.763-0.154,2.542-0.469
			c0.793-0.316,1.468-0.766,2.035-1.354c0.563-0.59,1.013-1.296,1.345-2.113c0.336-0.821,0.499-1.729,0.5-2.716l0.02-12.173
			l3.143,0.005l-0.033,21.304l-3.143-0.005l0.006-3.703c-0.719,1.153-1.656,2.132-2.815,2.94
			C155.696,65.587,154.188,65.993,152.348,65.99z"/>
		<path fill="#FFFFFF" d="M166.162,44.247l3.189,0.005l-0.007,4.285c0.437-0.627,0.931-1.234,1.467-1.812
			c0.541-0.576,1.14-1.077,1.809-1.5c0.657-0.429,1.393-0.77,2.211-1.031c0.814-0.255,1.713-0.383,2.71-0.381
			c1.266,0.002,2.515,0.249,3.737,0.743c1.231,0.5,2.325,1.224,3.29,2.17c0.963,0.948,1.731,2.104,2.313,3.466
			c0.576,1.363,0.865,2.927,0.862,4.68v0.084c-0.003,1.73-0.296,3.284-0.877,4.658c-0.586,1.371-1.348,2.528-2.298,3.472
			c-0.959,0.951-2.05,1.678-3.276,2.184c-1.23,0.505-2.488,0.761-3.785,0.759c-0.997-0.001-1.904-0.129-2.725-0.381
			c-0.832-0.248-1.577-0.575-2.24-0.991c-0.658-0.413-1.261-0.894-1.797-1.442c-0.537-0.549-1.016-1.13-1.422-1.735l-0.016,10.675
			l-3.189-0.005L166.162,44.247z M176.93,63.184c1.019,0.002,1.991-0.185,2.919-0.556c0.924-0.369,1.724-0.9,2.399-1.601
			c0.683-0.699,1.222-1.561,1.616-2.572c0.405-1.021,0.609-2.173,0.611-3.466v-0.084c0.002-1.259-0.198-2.399-0.601-3.421
			c-0.392-1.017-0.939-1.882-1.625-2.597c-0.688-0.715-1.486-1.268-2.402-1.654c-0.904-0.382-1.874-0.58-2.893-0.581
			c-0.995-0.002-1.945,0.196-2.874,0.594c-0.926,0.393-1.756,0.96-2.486,1.688c-0.735,0.726-1.317,1.591-1.738,2.594
			c-0.434,1.003-0.648,2.108-0.65,3.315v0.086c-0.002,1.233,0.208,2.358,0.64,3.381c0.418,1.014,0.998,1.877,1.73,2.598
			c0.729,0.715,1.557,1.269,2.481,1.67C174.984,62.982,175.935,63.183,176.93,63.184z"/>
		<path fill="#FFFFFF" d="M201.15,66.1c-1.595-0.002-3.068-0.297-4.417-0.889c-1.354-0.594-2.525-1.395-3.512-2.399
			c-0.991-1.002-1.765-2.17-2.314-3.506c-0.554-1.332-0.82-2.753-0.817-4.265v-0.08c0.002-1.513,0.272-2.941,0.83-4.285
			c0.555-1.351,1.332-2.527,2.326-3.545c0.989-1.011,2.167-1.817,3.537-2.406c1.368-0.587,2.864-0.878,4.49-0.875
			c1.604,0.002,3.085,0.298,4.445,0.889c1.361,0.593,2.547,1.392,3.537,2.399c0.988,1.006,1.757,2.173,2.312,3.507
			c0.547,1.33,0.819,2.757,0.817,4.265v0.086c-0.003,1.507-0.284,2.939-0.855,4.284c-0.563,1.342-1.347,2.522-2.339,3.54
			c-0.998,1.017-2.186,1.816-3.561,2.407C204.245,65.812,202.757,66.103,201.15,66.1z M201.244,63.262
			c1.159,0.002,2.223-0.219,3.187-0.658c0.966-0.436,1.794-1.024,2.485-1.763c0.69-0.745,1.232-1.607,1.619-2.597
			c0.383-0.988,0.584-2.044,0.586-3.173V54.99c0.002-1.157-0.202-2.235-0.595-3.239c-0.407-1.002-0.96-1.883-1.676-2.642
			c-0.72-0.754-1.559-1.354-2.521-1.795c-0.97-0.44-2.014-0.662-3.148-0.664c-1.153-0.002-2.214,0.217-3.181,0.654
			c-0.973,0.438-1.789,1.027-2.466,1.771c-0.674,0.738-1.21,1.609-1.595,2.611c-0.388,1-0.586,2.063-0.588,3.194v0.084
			c-0.002,1.152,0.199,2.231,0.596,3.237c0.401,1.003,0.955,1.874,1.654,2.62c0.699,0.739,1.532,1.332,2.498,1.771
			C199.063,63.036,200.117,63.26,201.244,63.262z"/>
		<g>
			<path fill="#126AFB" d="M71.729,78.018c-0.512,0.526-12.788,8.293-19.222,11.756c-3.482,1.879-6.45,3.254-11.625-0.121
				C39.705,88.886,8.755,64.251,8.755,64.251s-3.058-2.303-3.051-6.252c0,0,2.253,4.454,5.692,2.473
				c8.388-4.835,21.898-10.642,23.228-11.057c1.328-0.415,3.16-2.265,6.603-0.237c3.567,2.104,32.169,22.913,32.169,22.913
				S74.964,74.68,71.729,78.018z"/>
			<path fill="#FFFFFF" d="M52.506,89.773c-6.098,1.265-5.92-5.586-5.92-5.586l0.048-31.321l28.577,18.475
				c6.563,3.93,0.256,6.767,0.256,6.767C71.346,80.523,52.506,89.773,52.506,89.773z"/>
			<path fill="#051C9F" d="M46.634,52.866l0.002-0.648c0,0,0.569-3.728-3.028-5.905c-1.061-0.641-4.12-2.475-7.896-4.846
				c-2.249-1.411-4.756-2.998-7.275-4.592c-3.675-2.327-7.365-4.676-10.277-6.533c-3.812-2.433-5.765-3.682-5.765-3.682
				s-2.607-1.612-4.725-0.339c-1.039,0.627-1.958,1.745-1.925,4.021c0.025,1.671,0.017,7.638,0.002,13.775
				c-0.017,6.987-0.044,13.882-0.044,13.882S6,58.693,6.898,59.692c1.686,1.868,4.062,1.306,5.645,0.752l12.531-4.821
				c6.996-2.779,11.766-4.554,12.244-4.715c2.937-0.998,4.559-1.424,7.807,0.936L46.634,52.866z"/>
		</g>
		<g>
			<path fill="#126AFB" d="M20.276,13.629c0.577-0.51,23.277-9.836,25.275-10.607c3.487-1.345,4.936-0.387,6.768,0.745
				c4.977,3.066,10.44,6.468,15.445,9.596c8.498,5.311,15.682,9.826,16.96,10.563c3.118,2.202,4.351,2.822,4.338,8.218
				c0,0-0.15-4.127-4.388-1.991c-3.833,1.935-7.769,3.976-11.254,5.756c-6.285,3.208-11.242,5.68-12.136,6.068
				c-2.468,1.068-2.92,1.853-6.891-0.685c-3.969-2.537-33.459-21.178-33.459-21.178S17.42,16.141,20.276,13.629z"/>
			<path fill="#FFFFFF" d="M42.534,4.24c2.325-0.831,3.427-0.635,4.463-0.195c1.773,0.753,1.77,3.053,1.77,3.053l-0.065,30.523
				c0,0-26.368-16.337-28.005-17.353c-2.59-1.608-3.604-5.848,1.676-7.899C32.055,8.647,42.534,4.24,42.534,4.24z"/>
			<path fill="#051C9F" d="M48.72,37.459c0,0,0.08,1.897,0.016,3.568c-0.201,5.372,4.678,8.383,4.678,8.383s3.89,2.72,12.035,7.697
				c8.654,5.292,4.675,2.778,15.166,8.601c3.2,1.774,8.397,1.356,8.404-3.104c0.006-3.662,0.043-30.663,0.043-30.663
				s0.01-4.078-4.388-1.789c0,0-3.966,1.998-9.332,4.692c-6.706,3.368-3.577,1.87-13.301,6.665c-2.308,1.137-4.658,1.185-7.23-0.181
				C50.521,39.049,48.72,37.459,48.72,37.459z"/>
		</g>
	</g>
</g>
</svg>
