<svg width="6.82666" height="6.82666" xmlns="http://www.w3.org/2000/svg">

 <g>
  <title>background</title>
  <rect fill="none" id="canvas_background" height="402" width="582" y="-1" x="-1"/>
 </g>
 <g>
  <title>Layer 1</title>
  <path fill-rule="nonzero" fill="#ffffff" id="svg_1" d="m5.76,3.62583c0.11736,0 0.2125,-0.09514 0.2125,-0.2125c0,-0.11736 -0.09514,-0.2125 -0.2125,-0.2125l-4.69333,0c-0.11736,0 -0.2125,0.09514 -0.2125,0.2125c0,0.11735 0.09514,0.2125 0.2125,0.2125l4.69333,0z" class="fil0"/>
  <path fill-rule="nonzero" fill="#ffffff" id="svg_2" d="m3.62583,1.06666c0,-0.11736 -0.09514,-0.2125 -0.2125,-0.2125c-0.11736,0 -0.2125,0.09514 -0.2125,0.2125l0,4.69333c0,0.11736 0.09515,0.2125 0.2125,0.2125c0.11736,0 0.2125,-0.09514 0.2125,-0.2125l0,-4.69333z" class="fil0"/>
 </g>
</svg>